<svg xmlns="http://www.w3.org/2000/svg" width="150" height="170" viewBox="0 0 150 170">
  <ellipse cx="75" cy="144" rx="44" ry="16" fill="#25313b" opacity=".2"/>
  <path d="M43 79c0-25 14-41 32-41s32 16 32 41v56H43V79z" fill="#4b456f" stroke="#25313b" stroke-width="7" stroke-linejoin="round"/>
  <circle cx="75" cy="43" r="27" fill="#cfa06d" stroke="#25313b" stroke-width="7"/>
  <path d="M43 33h64l-10-16H53L43 33z" fill="#34364c" stroke="#25313b" stroke-width="6" stroke-linejoin="round"/>
  <path d="M55 18c12-9 28-9 40 0" fill="#34364c" stroke="#25313b" stroke-width="6" stroke-linecap="round"/>
  <circle cx="65" cy="42" r="4" fill="#25313b"/>
  <circle cx="85" cy="42" r="4" fill="#25313b"/>
  <path d="M66 56h18" fill="none" stroke="#25313b" stroke-width="4" stroke-linecap="round"/>
  <path d="M45 82L23 112M105 82l20 28M58 133l-8 24M92 133l8 24" fill="none" stroke="#25313b" stroke-width="10" stroke-linecap="round"/>
  <path d="M68 84h14l-7 14-7-14z" fill="#e7b85d" stroke="#25313b" stroke-width="4"/>
  <path d="M119 101l13-13 9 9-13 13z" fill="#fff4dc" stroke="#25313b" stroke-width="4"/>
</svg>
